# xmcd
#
# Track frame offsets:
#	150
#	40666
#	63092
#	86485
#	117100
#	154246
#	184783
#	225123
#	248600
#
# Disc length: 3792 seconds
#
# Revision: 1
# Processed by: cddbd v1.5PL3 Copyright (c) Steve Scherf et al.
# Submitted via: audiograbber 1.82.01
#
DISCID=5c0ece09
DTITLE=Johnny Winter - 1979-09-08 - Park Meadows Racetrack,Shirely, NY - FM Bro
DTITLE=adcast
DYEAR=1900
DGENRE=
TTITLE0=Johnny Winter - Hideaway
TTITLE1=Johnny Winter - Messin' With The Kid
TTITLE2=Johnny Winter - Johnny B - Goode
TTITLE3=Johnny Winter - Come On In My Kitchen
TTITLE4=Johnny Winter - Rollin' and Tumblin-Mean Town Blues-Rollin' and Tumblin'
TTITLE5=Johnny Winter - Help Me
TTITLE6=Johnny Winter - Stranger
TTITLE7=Johnny Winter - Jumpin' Jack Flash
TTITLE8=Johnny Winter - Boney Moronie
EXTD=
EXTT0=
EXTT1=
EXTT2=
EXTT3=
EXTT4=
EXTT5=
EXTT6=
EXTT7=
EXTT8=
PLAYORDER=
